<svg width="100" height="100" viewBox="0 0 100 100" xmlns="http://www.w3.org/2000/svg">
  <!-- Background circle -->
  <circle cx="50" cy="50" r="48" fill="#1e3a8a" stroke="#eab308" stroke-width="2"/>
  
  <!-- Inner design elements -->
  <circle cx="50" cy="50" r="35" fill="none" stroke="#eab308" stroke-width="1.5"/>
  
  <!-- Engineering/Architecture symbols -->
  <!-- Gear/Engineering symbol -->
  <g transform="translate(35, 35)">
    <circle cx="15" cy="15" r="8" fill="none" stroke="#eab308" stroke-width="2"/>
    <circle cx="15" cy="15" r="4" fill="#eab308"/>
    <!-- Gear teeth -->
    <rect x="14" y="5" width="2" height="4" fill="#eab308"/>
    <rect x="14" y="21" width="2" height="4" fill="#eab308"/>
    <rect x="5" y="14" width="4" height="2" fill="#eab308"/>
    <rect x="21" y="14" width="4" height="2" fill="#eab308"/>
  </g>
  
  <!-- Building/Architecture symbol -->
  <g transform="translate(50, 35)">
    <rect x="10" y="8" width="10" height="14" fill="none" stroke="#ffffff" stroke-width="1.5"/>
    <rect x="12" y="10" width="2" height="2" fill="#ffffff"/>
    <rect x="16" y="10" width="2" height="2" fill="#ffffff"/>
    <rect x="12" y="14" width="2" height="2" fill="#ffffff"/>
    <rect x="16" y="14" width="2" height="2" fill="#ffffff"/>
    <rect x="14" y="18" width="2" height="4" fill="#ffffff"/>
  </g>
  
  <!-- Construction symbol -->
  <g transform="translate(35, 50)">
    <path d="M 10 15 L 20 15 L 18 8 L 12 8 Z" fill="#ffffff" stroke="#eab308" stroke-width="1"/>
    <rect x="14" y="15" width="2" height="8" fill="#ffffff"/>
  </g>
  
  <!-- Text elements -->
  <text x="50" y="75" text-anchor="middle" fill="#ffffff" font-family="Arial, sans-serif" font-size="8" font-weight="bold">AECAS</text>
  <text x="50" y="85" text-anchor="middle" fill="#eab308" font-family="Arial, sans-serif" font-size="5">TUK</text>
</svg>